<svg width="165" height="46" viewBox="0 0 165 46" fill="none" xmlns="http://www.w3.org/2000/svg"><path fill-rule="evenodd" clip-rule="evenodd" d="M26.954.017c5.985.007 10.835 4.856 10.842 10.841.038 6.008-4.802 10.908-10.81 10.945h-.032c-6.04-.01-10.934-4.905-10.944-10.945C16.064 4.853 20.949.015 26.954.017z" fill="#C32026"/><mask id="a" maskUnits="userSpaceOnUse" x="0" y="22" width="54" height="24"><path fill-rule="evenodd" clip-rule="evenodd" d="M0 22.512h53.2v23.003H0V22.512z" fill="#fff"/></mask><g mask="url(#a)"><path fill-rule="evenodd" clip-rule="evenodd" d="M.584 22.512a.584.584 0 00-.584.584v5.114c0 .323.261.585.584.585h12.387a4.974 4.974 0 014.965 4.966v11.17c0 .322.262.584.583.584h5.015a.584.584 0 00.584-.584V32.444a9.948 9.948 0 00-9.932-9.932H.584zm52.032 0c.323 0 .584.262.584.584v5.114a.584.584 0 01-.584.585H40.939a4.974 4.974 0 00-4.965 4.966v11.17a.584.584 0 01-.584.584h-5.014a.584.584 0 01-.585-.584V32.444c-.038-5.446 4.345-9.892 9.79-9.932h13.035z" fill="#21428F"/></g><path fill-rule="evenodd" clip-rule="evenodd" d="M150.484 16.671c-2.182 0-3.232-.822-4.168-3.232l-2.935-8.332a.322.322 0 00-.341-.199h-.261c-.142 0-.198.085-.198.283v13.925a.659.659 0 01-.738.738h-3.46a.659.659 0 01-.737-.738V3.41c0-2.523.566-3.401 2.864-3.401h3.579c1.929 0 2.665.368 3.46 2.523l3.104 9.353c.051.174.212.29.393.284h.174a.39.39 0 00.391-.284l3.105-9.353c.795-2.155 1.531-2.523 3.459-2.523h3.58c2.298 0 2.863.878 2.863 3.401v15.707a.657.657 0 01-.736.737h-3.46a.659.659 0 01-.737-.737V5.191c0-.198-.057-.283-.199-.283h-.261a.321.321 0 00-.341.199l-2.935 8.332c-.936 2.41-1.985 3.232-4.168 3.232h-1.297zM63.4.006a.652.652 0 00-.737.738V4.06a.653.653 0 00.737.738h8.505v14.316a.668.668 0 00.765.738h3.656a.66.66 0 00.737-.738V4.797H85.6a.66.66 0 00.738-.737V.742A.66.66 0 0085.6.006H63.4zm32.547.001c-5.812 0-8.023 2.04-8.023 7.484v4.877c0 5.443 2.211 7.485 8.023 7.485h12.503a.653.653 0 00.738-.738v-3.174c0-.51-.227-.738-.738-.738H96.031c-2.466 0-3.09-.653-3.09-3.317h15.338c.511 0 .738-.227.738-.738v-2.61c0-.51-.227-.738-.738-.738H92.942c0-2.495.652-3.119 3.09-3.119h12.417c.51 0 .738-.261.738-.765V.742a.654.654 0 00-.737-.735H95.947z" fill="#C32026"/><path fill-rule="evenodd" clip-rule="evenodd" d="M82.713 36.925c0 2.95-.851 3.8-3.743 3.8h-9.95c-.228 0-.34-.143-.34-.427l-.002-9.7c0-.284.114-.392.34-.392h9.953c2.892 0 3.743.823 3.743 3.77v2.95zm-3.628-11.401H64.369v-.001a.753.753 0 00-.852.85v18.148a.753.753 0 00.852.852h14.716c6.238 0 8.79-2.467 8.79-7.995v-3.86c0-5.528-2.552-7.994-8.79-7.994zm19.479.106c-5.811 0-8.023 2.042-8.023 7.485v4.877c0 5.443 2.212 7.485 8.023 7.485h12.503a.654.654 0 00.738-.738v-3.175c0-.51-.227-.737-.738-.737H98.649c-2.467 0-3.09-.653-3.09-3.317h15.339c.51 0 .737-.227.737-.737v-2.611c0-.511-.227-.738-.737-.738h-15.34c0-2.494.654-3.12 3.09-3.12h12.418c.51 0 .738-.26.738-.764v-3.172a.652.652 0 00-.738-.737H98.564zm21.739-.108c-3.515 0-5.248 1.9-5.248 4.764v2.07c0 3.203 1.814 5.045 5.187 5.045h11.488c.765 0 1.105.393 1.105 1.191v.909c0 .764-.34 1.218-1.134 1.218h-15.877a.652.652 0 00-.737.737v3.175a.66.66 0 00.737.739h16.9c3.543 0 5.245-1.9 5.245-4.736v-2.269c0-3.203-1.815-5.046-5.161-5.046h-11.513c-.737 0-1.076-.392-1.076-1.191v-.737c0-.765.341-1.191 1.105-1.191h15.17c.51 0 .737-.26.737-.765V26.26a.652.652 0 00-.737-.738h-16.191zm21.075 0a.661.661 0 00-.738.738v18.372a.66.66 0 00.738.738h3.685a.66.66 0 00.738-.738V37.26h5.162c1.389 0 1.87.227 2.495 1.044l5.018 6.658c.197.284.368.392.906.392h4.339a.523.523 0 00.453-.852l-5.698-7.31a9.916 9.916 0 00-2.042-2.041 13.01 13.01 0 001.503-1.76l5.467-7.102a.473.473 0 00-.426-.765h-4.248c-.567 0-.709.114-.936.392l-4.735 6.436c-.653.907-1.106 1.044-2.495 1.044H145.8V26.26a.66.66 0 00-.738-.738h-3.684z" fill="#21428F"/><path fill-rule="evenodd" clip-rule="evenodd" d="M119.775 12.258l3.415-7.287a.33.33 0 01.311-.198h.132a.33.33 0 01.312.198l3.415 7.287h-7.585zm15.838 6.83l-7.526-16.582C127.004.492 126.013.01 124.312.01h-1.489c-1.701 0-2.693.481-3.775 2.495l-7.527 16.582c-.26.454-.174.765.392.765h3.838a.719.719 0 00.737-.392l1.523-3.314h11.113l1.523 3.314a.717.717 0 00.736.392h3.838c.567 0 .653-.311.392-.765z" fill="#C32026"/></svg>